<svg width="29" height="28" viewBox="0 0 29 28" fill="none" xmlns="http://www.w3.org/2000/svg">
<path fill-rule="evenodd" clip-rule="evenodd" d="M16.7218 7.32596C16.2853 7.62861 15.7928 7.84129 15.2733 7.95158C14.7537 8.06188 14.2173 8.06758 13.6955 7.96836C13.1737 7.86914 12.6768 7.66699 12.234 7.37369C11.7911 7.0804 11.4111 6.70184 11.1162 6.26011C10.8212 5.81837 10.6171 5.32231 10.5159 4.80087C10.4147 4.27943 10.4184 3.74306 10.5267 3.22306C10.635 2.70305 10.8458 2.20983 11.1468 1.77216C11.4478 1.3345 11.833 0.961174 12.2798 0.67396C13.1619 0.0912775 14.2389 -0.118461 15.2753 0.0905904C16.3116 0.299642 17.2231 0.910481 17.8104 1.78958C18.3977 2.66868 18.6131 3.74454 18.4095 4.78198C18.2058 5.81942 17.5998 6.73406 16.7238 7.32596H16.7218ZM15.6118 2.33796C15.394 2.18127 15.1469 2.07001 14.8852 2.0108C14.6235 1.95159 14.3525 1.94564 14.0885 1.99331C13.8244 2.04098 13.5727 2.1413 13.3482 2.28828C13.1237 2.43526 12.9311 2.62591 12.7819 2.84887C12.6326 3.07183 12.5297 3.32254 12.4794 3.58608C12.429 3.84963 12.4322 4.12061 12.4887 4.3829C12.5452 4.64519 12.654 4.89342 12.8084 5.11281C12.9629 5.33221 13.1599 5.51829 13.3878 5.65996C13.828 5.92738 14.3544 6.01465 14.8574 5.90358C15.3604 5.79251 15.8011 5.49167 16.0878 5.06372C16.3744 4.63578 16.485 4.11374 16.3963 3.60634C16.3076 3.09894 16.0266 2.64531 15.6118 2.33996V2.33796ZM20.8318 2.39796C21.4086 2.00996 22.1027 1.83524 22.7944 1.90387C23.4862 1.9725 24.1324 2.28019 24.6218 2.77396C24.9705 3.12546 25.2276 3.55715 25.3706 4.03116C25.5136 4.50518 25.5381 5.00704 25.4419 5.49273C25.3458 5.97842 25.1319 6.4331 24.8191 6.81688C24.5063 7.20066 24.1041 7.50183 23.6478 7.69396C23.0997 7.9231 22.4958 7.98346 21.9132 7.86731C21.3307 7.75115 20.796 7.46377 20.3778 7.04196C20.0634 6.72599 19.8228 6.34445 19.6731 5.92462C19.5235 5.5048 19.4684 5.05709 19.512 4.61352C19.5556 4.16995 19.6967 3.7415 19.9252 3.35882C20.1537 2.97615 20.4639 2.64872 20.8338 2.39996L20.8318 2.39796ZM21.7918 5.61796C21.9795 5.80494 22.2339 5.90966 22.4989 5.9091C22.6301 5.90882 22.76 5.8827 22.8811 5.83223C23.0022 5.78177 23.1122 5.70794 23.2048 5.61496C23.2974 5.52198 23.3707 5.41168 23.4207 5.29036C23.4706 5.16903 23.4962 5.03905 23.4959 4.90784C23.4956 4.77663 23.4695 4.64676 23.4191 4.52565C23.3686 4.40453 23.2948 4.29454 23.2018 4.20196C23.0156 4.01468 22.7638 3.90711 22.4998 3.90196C22.3679 3.90169 22.2372 3.92757 22.1154 3.97811C21.9935 4.02864 21.8829 4.10283 21.7899 4.19638C21.697 4.28993 21.6234 4.40098 21.5736 4.52312C21.5238 4.64526 21.4987 4.77606 21.4998 4.90796C21.5004 5.17432 21.6052 5.42986 21.7918 5.61996V5.61796ZM4.87978 22.974H8.49978V24.984H4.87978C4.24607 24.9782 3.64048 24.7215 3.19578 24.27C2.74936 23.8168 2.49933 23.2061 2.49978 22.57V18.95C2.2305 18.941 1.96585 18.8775 1.72179 18.7634C1.47773 18.6492 1.25933 18.4868 1.07978 18.286C0.888985 18.0927 0.73925 17.8628 0.639576 17.6102C0.539903 17.3576 0.49235 17.0874 0.499777 16.816V12.452C0.505777 11.508 0.879777 10.606 1.53978 9.93596C2.19778 9.27396 3.08778 8.89596 4.01978 8.88996H7.69978C7.2034 9.4811 6.82949 10.165 6.59978 10.902H4.01978C3.61386 10.9136 3.22764 11.0795 2.93978 11.366C2.65702 11.6567 2.49912 12.0464 2.49978 12.452V16.916H4.49978V22.568C4.49514 22.6224 4.50161 22.6773 4.5188 22.7292C4.53599 22.7811 4.56354 22.829 4.59978 22.87C4.68017 22.9321 4.77821 22.9671 4.87978 22.97V22.974ZM19.4798 9.93796C19.1525 9.60752 18.7632 9.345 18.3342 9.1655C17.9051 8.98599 17.4448 8.89303 16.9798 8.89196H12.0198C11.0874 8.89942 10.1959 9.27545 9.53978 9.93796C8.87978 10.608 8.50578 11.51 8.49978 12.454V18.81C8.49695 19.3557 8.7047 19.8815 9.07978 20.278C9.25955 20.4786 9.478 20.6408 9.72201 20.7549C9.96602 20.869 10.2306 20.9326 10.4998 20.942V25.588C10.4979 25.9051 10.5588 26.2194 10.6789 26.5129C10.7991 26.8064 10.9761 27.0732 11.1998 27.298C11.5598 27.634 12.0138 27.852 12.4998 27.922H16.4998C17.0623 27.8481 17.5777 27.5689 17.9469 27.1381C18.3161 26.7073 18.513 26.1552 18.4998 25.588V20.94C18.769 20.931 19.0337 20.8675 19.2778 20.7534C19.5218 20.6392 19.7402 20.4768 19.9198 20.276C20.1104 20.083 20.2601 19.8535 20.3597 19.6012C20.4594 19.3489 20.507 19.0791 20.4998 18.808V12.452C20.5012 11.5123 20.1351 10.6094 19.4798 9.93596V9.93796ZM18.4998 18.908H16.4998V25.588C16.4978 25.6934 16.4548 25.7939 16.3798 25.868C16.3457 25.9084 16.3026 25.9402 16.254 25.9611C16.2054 25.9819 16.1526 25.9911 16.0998 25.988H12.8798C12.7753 25.9831 12.6763 25.9394 12.6023 25.8654C12.5284 25.7914 12.4846 25.6925 12.4798 25.588V18.908H10.4998V12.452C10.4998 12.046 10.6578 11.656 10.9398 11.366C11.2276 11.0795 11.6139 10.9136 12.0198 10.902H16.9798C17.2827 10.9073 17.5776 11.001 17.828 11.1715C18.0785 11.3421 18.2738 11.582 18.3898 11.862C18.4659 12.0492 18.5033 12.2499 18.4998 12.452V18.908ZM24.1198 24.982H20.4998V22.972H24.0998C24.2013 22.9691 24.2994 22.9341 24.3798 22.872C24.4201 22.8326 24.4516 22.7852 24.4722 22.7328C24.4929 22.6804 24.5023 22.6242 24.4998 22.568V16.916H26.4998V12.452C26.5004 12.0464 26.3425 11.6567 26.0598 11.366C25.7719 11.0795 25.3857 10.9136 24.9798 10.902H22.3998C22.1702 10.165 21.7962 9.48104 21.2998 8.88996H24.9798C25.9119 8.8985 26.8031 9.27437 27.4598 9.93596C28.1198 10.606 28.4938 11.508 28.4998 12.452V16.816C28.4998 17.362 28.2938 17.886 27.9218 18.282C27.5498 18.68 27.0418 18.918 26.4998 18.948V22.568C26.4998 23.206 26.2498 23.816 25.8038 24.268C25.3591 24.7195 24.7535 24.9762 24.1198 24.982ZM6.49978 1.88996C5.90463 1.88927 5.32284 2.06632 4.82897 2.39842C4.3351 2.73051 3.95165 3.20253 3.72778 3.75396C3.50184 4.3052 3.44318 4.91075 3.55913 5.49511C3.67508 6.07946 3.96049 6.61675 4.37978 7.03996C4.79891 7.46269 5.33454 7.75087 5.91825 7.86771C6.50196 7.98454 7.10725 7.92472 7.6568 7.69589C8.20635 7.46705 8.6752 7.07959 9.00348 6.583C9.33175 6.08641 9.50454 5.50323 9.49978 4.90796C9.49978 4.10796 9.18378 3.33996 8.61978 2.77396C8.34206 2.49423 8.0118 2.27213 7.64798 2.12042C7.28417 1.96872 6.89396 1.89039 6.49978 1.88996ZM6.49978 5.91396C6.36787 5.91423 6.23723 5.88835 6.11539 5.83781C5.99355 5.78728 5.88294 5.71309 5.78994 5.61954C5.69695 5.52599 5.62343 5.41494 5.57362 5.2928C5.52382 5.17066 5.49872 5.03986 5.49978 4.90796C5.5003 4.64235 5.60563 4.38768 5.79288 4.1993C5.98014 4.01092 6.23417 3.90407 6.49978 3.90196C6.76457 3.90662 7.01712 4.0143 7.20383 4.20212C7.39054 4.38995 7.4967 4.64314 7.49978 4.90796C7.49926 5.17357 7.39392 5.42824 7.20667 5.61662C7.01942 5.805 6.76538 5.91185 6.49978 5.91396Z" fill="white"/>
</svg>
