<svg width="27" height="26" viewBox="0 0 27 26" fill="none" xmlns="http://www.w3.org/2000/svg">
<path d="M26.312 4.05005L14.312 0.050047C14.1084 -0.0126133 13.8907 -0.0126133 13.687 0.050047L1.69954 4.05005H1.67454L1.54954 4.11255H1.53704L1.41204 4.18755C1.41204 4.20005 1.39954 4.20005 1.38704 4.21255L1.28704 4.30005L1.19954 4.40005C1.19954 4.41255 1.18704 4.41255 1.18704 4.42505L1.11204 4.53755C1.11204 4.55005 1.11204 4.55005 1.09954 4.56255L1.04954 4.67505L1.01204 4.81255V4.85005C0.999708 4.89903 0.995485 4.9497 0.999538 5.00005V15C0.999538 15.2653 1.10489 15.5196 1.29243 15.7072C1.47997 15.8947 1.73432 16 1.99954 16C2.26475 16 2.51911 15.8947 2.70664 15.7072C2.89418 15.5196 2.99954 15.2653 2.99954 15V6.38755L7.19954 7.78755C6.41049 9.05054 5.9945 10.5108 5.99954 12C6 13.3544 6.34431 14.6865 7.0002 15.8715C7.65609 17.0565 8.60208 18.0555 9.74954 18.775C7.36504 19.6771 5.32936 21.3144 3.93704 23.45C3.79512 23.6745 3.74704 23.9456 3.80315 24.2052C3.85927 24.4647 4.01509 24.6918 4.23704 24.8375C4.34596 24.9097 4.46812 24.9596 4.59644 24.9842C4.72476 25.0088 4.85668 25.0077 4.98458 24.9809C5.11247 24.9542 5.23379 24.9023 5.34149 24.8284C5.4492 24.7544 5.54116 24.6598 5.61204 24.55C6.5197 23.1519 7.76246 22.0029 9.22731 21.2074C10.6922 20.4119 12.3326 19.9952 13.9995 19.9952C15.6664 19.9952 17.3069 20.4119 18.7718 21.2074C20.2366 22.0029 21.4794 23.1519 22.387 24.55C22.4783 24.6887 22.6027 24.8024 22.7489 24.8809C22.8951 24.9595 23.0586 25.0004 23.2245 25C23.4161 25.0021 23.6037 24.9454 23.762 24.8375C23.984 24.6918 24.1398 24.4647 24.1959 24.2052C24.252 23.9456 24.204 23.6745 24.062 23.45C22.6697 21.3144 20.634 19.6771 18.2495 18.775C19.397 18.0555 20.343 17.0565 20.9989 15.8715C21.6548 14.6865 21.9991 13.3544 21.9995 12C22.0046 10.5108 21.5886 9.05054 20.7995 7.78755L26.312 5.95005C26.5121 5.88429 26.6863 5.75704 26.8098 5.58646C26.9333 5.41587 26.9998 5.21065 26.9998 5.00005C26.9998 4.78945 26.9333 4.58423 26.8098 4.41364C26.6863 4.24305 26.5121 4.11581 26.312 4.05005V4.05005ZM13.9995 18C12.4082 18 10.8821 17.3679 9.7569 16.2427C8.63168 15.1175 7.99954 13.5913 7.99954 12C8.00195 10.7197 8.40881 9.47288 9.16204 8.43755L13.687 9.95005C13.89 10.0168 14.1091 10.0168 14.312 9.95005L18.837 8.43755C19.5903 9.47288 19.9971 10.7197 19.9995 12C19.9995 13.5913 19.3674 15.1175 18.2422 16.2427C17.117 17.3679 15.5908 18 13.9995 18Z" fill="white"/>
</svg>
