<svg width="24" height="25" viewBox="0 0 24 25" fill="none" xmlns="http://www.w3.org/2000/svg">
<g clip-path="url(#clip0_446_5330)">
<path d="M23.6429 5.43683C22.8079 5.80683 21.9109 6.05683 20.9679 6.16983C21.9409 5.58763 22.6688 4.6713 23.0159 3.59183C22.1017 4.13482 21.1012 4.51703 20.0579 4.72183C19.3563 3.9727 18.427 3.47616 17.4142 3.30931C16.4015 3.14245 15.362 3.31462 14.4571 3.79909C13.5523 4.28355 12.8327 5.05319 12.41 5.98854C11.9874 6.92388 11.8854 7.97258 12.1199 8.97183C10.2676 8.87883 8.45552 8.39738 6.80131 7.55874C5.14711 6.72009 3.68773 5.54299 2.51789 4.10383C2.11789 4.79383 1.88789 5.59383 1.88789 6.44583C1.88744 7.21283 2.07632 7.96808 2.43777 8.64457C2.79921 9.32105 3.32205 9.89787 3.95989 10.3238C3.22017 10.3003 2.49676 10.1004 1.84989 9.74083V9.80083C1.84982 10.8766 2.22192 11.9192 2.90307 12.7518C3.58422 13.5844 4.53246 14.1558 5.58689 14.3688C4.90067 14.5545 4.18123 14.5819 3.48289 14.4488C3.78039 15.3744 4.35988 16.1839 5.14026 16.7638C5.92063 17.3437 6.86281 17.665 7.83489 17.6828C6.18472 18.9782 4.14678 19.6809 2.04889 19.6778C1.67727 19.6779 1.30597 19.6562 0.93689 19.6128C3.06637 20.982 5.54523 21.7087 8.07689 21.7058C16.6469 21.7058 21.3319 14.6078 21.3319 8.45183C21.3319 8.25183 21.3269 8.04983 21.3179 7.84983C22.2292 7.19081 23.0158 6.37473 23.6409 5.43983L23.6429 5.43683Z" fill="white"/>
</g>
<defs>
<clipPath id="clip0_446_5330">
<rect width="24" height="24" fill="white" transform="translate(-6.10352e-05 0.5)"/>
</clipPath>
</defs>
</svg>
