<svg width="24" height="25" viewBox="0 0 24 25" fill="none" xmlns="http://www.w3.org/2000/svg">
<g clip-path="url(#clip0_446_5335)">
<path d="M11.9999 23C18.6269 23 23.9999 18.299 23.9999 12.5C23.9999 6.701 18.6269 2 11.9999 2C5.37294 2 -6.10352e-05 6.701 -6.10352e-05 12.5C-6.10352e-05 15.14 1.11444 17.555 2.95494 19.4C2.80944 20.924 2.32944 22.595 1.79844 23.849C1.67994 24.128 1.90944 24.44 2.20794 24.392C5.59194 23.837 7.60344 22.985 8.47794 22.541C9.6268 22.8474 10.8109 23.0017 11.9999 23Z" fill="white"/>
<path d="M16.2173 14.4014L14.7357 14.2323C14.3798 14.1914 14.0298 14.3139 13.779 14.5648L12.7057 15.6381C11.0548 14.7981 9.70151 13.4506 8.86151 11.7939L9.94067 10.7148C10.1915 10.4639 10.314 10.1139 10.2732 9.75812L10.104 8.28812C10.034 7.69895 9.53817 7.25562 8.94317 7.25562H7.93401C7.27484 7.25562 6.72651 7.80395 6.76734 8.46312C7.07651 13.4448 11.0607 17.4231 16.0365 17.7323C16.6957 17.7731 17.244 17.2248 17.244 16.5656V15.5564C17.2498 14.9673 16.8065 14.4714 16.2173 14.4014Z" fill="#0C2338"/>
</g>
<defs>
<clipPath id="clip0_446_5335">
<rect width="24" height="24" fill="white" transform="translate(-6.10352e-05 0.5)"/>
</clipPath>
</defs>
</svg>
