<svg width="24" height="25" viewBox="0 0 24 25" fill="none" xmlns="http://www.w3.org/2000/svg">
<path d="M4.22202 20.2782C4.6859 20.7427 5.23699 21.111 5.84364 21.3619C6.45029 21.6128 7.10054 21.7414 7.75702 21.7402C8.41365 21.7414 9.06404 21.6128 9.67085 21.3619C10.2777 21.111 10.8289 20.7427 11.293 20.2782L14.121 17.4492L12.707 16.0352L9.87902 18.8642C9.31549 19.4252 8.55269 19.7402 7.75752 19.7402C6.96235 19.7402 6.19955 19.4252 5.63602 18.8642C5.07453 18.3009 4.75923 17.538 4.75923 16.7427C4.75923 15.9474 5.07453 15.1845 5.63602 14.6212L8.46502 11.7932L7.05102 10.3792L4.22202 13.2072C3.28583 14.1457 2.76007 15.4171 2.76007 16.7427C2.76007 18.0683 3.28583 19.3397 4.22202 20.2782ZM19.778 11.7932C20.7137 10.8545 21.2392 9.58312 21.2392 8.25771C21.2392 6.93229 20.7137 5.66092 19.778 4.72221C18.8396 3.78601 17.5681 3.26025 16.2425 3.26025C14.9169 3.26025 13.6455 3.78601 12.707 4.72221L9.87902 7.55121L11.293 8.96521L14.121 6.13621C14.6846 5.5752 15.4474 5.26024 16.2425 5.26024C17.0377 5.26024 17.8005 5.5752 18.364 6.13621C18.9255 6.69948 19.2408 7.46237 19.2408 8.25771C19.2408 9.05304 18.9255 9.81593 18.364 10.3792L15.535 13.2072L16.949 14.6212L19.778 11.7932Z" fill="white"/>
<path d="M8.46395 17.4498L7.04895 16.0358L15.536 7.5498L16.95 8.9648L8.46395 17.4498Z" fill="white"/>
</svg>
