<svg width="24" height="25" viewBox="0 0 24 25" fill="none" xmlns="http://www.w3.org/2000/svg">
<g clip-path="url(#clip0_446_5332)">
<path d="M19.3627 10.3631C19.4474 10.3602 19.5318 10.3743 19.611 10.4047C19.6901 10.4351 19.7623 10.4811 19.8232 10.54C19.8842 10.5989 19.9327 10.6695 19.9658 10.7475C19.9989 10.8255 20.0159 10.9094 20.0159 10.9942C20.0159 11.079 19.9989 11.1629 19.9658 11.2409C19.9327 11.3189 19.8842 11.3895 19.8232 11.4484C19.7623 11.5073 19.6901 11.5533 19.611 11.5837C19.5318 11.6141 19.4474 11.6282 19.3627 11.6253H17.6084V12.7503H19.3627C19.4479 12.7462 19.5331 12.7594 19.6131 12.7891C19.693 12.8188 19.7661 12.8645 19.8279 12.9234C19.8897 12.9822 19.9389 13.053 19.9725 13.1314C20.0061 13.2098 20.0234 13.2943 20.0234 13.3796C20.0234 13.4649 20.0061 13.5493 19.9725 13.6277C19.9389 13.7062 19.8897 13.7769 19.8279 13.8358C19.7661 13.8946 19.693 13.9403 19.6131 13.97C19.5331 13.9998 19.4479 14.013 19.3627 14.0088H16.9799C16.8134 14.0082 16.6538 13.9417 16.5362 13.8238C16.4185 13.7059 16.3524 13.5461 16.3522 13.3796V8.60957C16.3522 8.26232 16.6334 7.97732 16.9799 7.97732H19.3672C19.5291 7.98569 19.6817 8.05604 19.7932 8.1738C19.9047 8.29156 19.9666 8.44769 19.9661 8.60986C19.9656 8.77203 19.9028 8.92779 19.7906 9.04488C19.6784 9.16198 19.5254 9.23142 19.3634 9.23882H17.6092V10.3638L19.3627 10.3631ZM15.5122 13.3788C15.5108 13.5459 15.4435 13.7056 15.325 13.8233C15.2064 13.941 15.0462 14.0071 14.8792 14.0073C14.7803 14.0083 14.6825 13.9862 14.5936 13.9429C14.5047 13.8995 14.4271 13.8361 14.3669 13.7576L11.9257 10.4373V13.3781C11.9257 13.545 11.8594 13.705 11.7414 13.823C11.6234 13.941 11.4633 14.0073 11.2964 14.0073C11.1296 14.0073 10.9695 13.941 10.8515 13.823C10.7335 13.705 10.6672 13.545 10.6672 13.3781V8.60807C10.6672 8.33882 10.8434 8.09732 11.0969 8.01107C11.1595 7.98896 11.2255 7.97804 11.2919 7.97882C11.4869 7.97882 11.6669 8.08457 11.7877 8.23307L14.2484 11.5608V8.60807C14.2484 8.26082 14.5297 7.97582 14.8777 7.97582C15.2257 7.97582 15.5107 8.26082 15.5107 8.60807L15.5122 13.3788ZM9.77019 13.3788C9.7694 13.5461 9.70233 13.7063 9.58368 13.8242C9.46504 13.9422 9.30448 14.0083 9.13719 14.0081C8.97114 14.0067 8.81236 13.9398 8.69536 13.822C8.57837 13.7041 8.51263 13.5449 8.51244 13.3788V8.60882C8.51244 8.26157 8.79369 7.97657 9.14169 7.97657C9.48894 7.97657 9.77094 8.26157 9.77094 8.60882L9.77019 13.3788ZM7.30494 14.0081H4.91769C4.75058 14.0077 4.59036 13.9414 4.47184 13.8236C4.35332 13.7057 4.28607 13.5459 4.28469 13.3788V8.60882C4.28469 8.26157 4.56969 7.97657 4.91769 7.97657C5.26569 7.97657 5.54694 8.26157 5.54694 8.60882V12.7496H7.30494C7.47183 12.7496 7.63188 12.8159 7.74989 12.9339C7.86789 13.0519 7.93419 13.2119 7.93419 13.3788C7.93419 13.5457 7.86789 13.7058 7.74989 13.8238C7.63188 13.9418 7.47183 14.0081 7.30494 14.0081ZM23.9999 10.8116C23.9999 5.44082 18.6127 1.06982 11.9999 1.06982C5.38719 1.06982 -6.10352e-05 5.44082 -6.10352e-05 10.8116C-6.10352e-05 15.6243 4.26969 19.6556 10.0349 20.4213C10.4257 20.5031 10.9567 20.6793 11.0939 21.0116C11.2147 21.3116 11.1719 21.7766 11.1329 22.0938L10.9687 23.1131C10.9214 23.4138 10.7264 24.2973 12.0157 23.7581C13.3087 23.2188 18.9337 19.6803 21.4529 16.7808C23.1757 14.8946 23.9999 12.9566 23.9999 10.8116Z" fill="white"/>
</g>
<defs>
<clipPath id="clip0_446_5332">
<rect width="24" height="24" fill="white" transform="translate(-6.10352e-05 0.5)"/>
</clipPath>
</defs>
</svg>
