<svg width="61" height="61" viewBox="0 0 61 61" fill="none" xmlns="http://www.w3.org/2000/svg">
<path d="M30.5 30.5C37.4036 30.5 43 24.9036 43 18C43 11.0964 37.4036 5.5 30.5 5.5C23.5964 5.5 18 11.0964 18 18C18 24.9036 23.5964 30.5 30.5 30.5Z" stroke="white" stroke-width="4"/>
<path d="M43 35.5H43.88C45.7077 35.5005 47.4723 36.1684 48.8423 37.3782C50.2123 38.588 51.0934 40.2564 51.32 42.07L52.2975 49.88C52.3855 50.5836 52.3227 51.2978 52.1135 51.9753C51.9043 52.6528 51.5534 53.278 51.0841 53.8095C50.6148 54.341 50.0378 54.7666 49.3914 55.058C48.745 55.3495 48.0441 55.5002 47.335 55.5H13.665C12.956 55.5002 12.255 55.3495 11.6086 55.058C10.9623 54.7666 10.3853 54.341 9.91597 53.8095C9.44665 53.278 9.09575 52.6528 8.88654 51.9753C8.67733 51.2978 8.61461 50.5836 8.70253 49.88L9.67753 42.07C9.90427 40.2556 10.7861 38.5865 12.1571 37.3765C13.5281 36.1666 15.294 35.4993 17.1225 35.5H18" stroke="white" stroke-width="4" stroke-linecap="round" stroke-linejoin="round"/>
</svg>
