<svg width="25" height="24" viewBox="0 0 25 24" fill="none" xmlns="http://www.w3.org/2000/svg">
<g clip-path="url(#clip0_10_47)">
<path d="M15.9936 14H15.2036L14.9236 13.73C16.1236 12.33 16.7436 10.42 16.4036 8.39002C15.9336 5.61002 13.6136 3.39002 10.8136 3.05002C6.58361 2.53002 3.02361 6.09001 3.54361 10.32C3.88361 13.12 6.10361 15.44 8.88361 15.91C10.9136 16.25 12.8236 15.63 14.2236 14.43L14.4936 14.71V15.5L18.7436 19.75C19.1536 20.16 19.8236 20.16 20.2336 19.75C20.6436 19.34 20.6436 18.67 20.2336 18.26L15.9936 14ZM9.99361 14C7.50361 14 5.49361 11.99 5.49361 9.50002C5.49361 7.01002 7.50361 5.00002 9.99361 5.00002C12.4836 5.00002 14.4936 7.01002 14.4936 9.50002C14.4936 11.99 12.4836 14 9.99361 14Z" fill="white"/>
</g>
<defs>
<clipPath id="clip0_10_47">
<rect width="24" height="24" fill="white" transform="translate(0.493591)"/>
</clipPath>
</defs>
</svg>
